<svg width="34" height="18" viewBox="0 0 34 18" fill="none" xmlns="http://www.w3.org/2000/svg">
                <path d="M11.1119 6.88809V9.68231H6.95307V13.8412H4.15884V9.68231H0V6.88809H4.15884V2.72924H6.95307V6.88809H11.1119ZM24.9531 8.31769C24.5199 8.31769 24.1083 8.25271 23.7184 8.12274C24.5415 6.90975 24.9531 5.58845 24.9531 4.15884C24.9531 2.68592 24.5415 1.36462 23.7184 0.194946C24.1083 0.064982 24.5199 0 24.9531 0C26.1227 0 27.1083 0.400722 27.9097 1.20217C28.7112 2.00361 29.1119 2.97834 29.1119 4.12635C29.1119 5.27437 28.7112 6.25993 27.9097 7.08303C27.1083 7.90614 26.1227 8.31769 24.9531 8.31769ZM18.0325 8.31769C16.8845 8.31769 15.8989 7.90614 15.0758 7.08303C14.2527 6.25993 13.8412 5.27437 13.8412 4.12635C13.8412 2.97834 14.2527 2.00361 15.0758 1.20217C15.8989 0.400722 16.8845 0 18.0325 0C19.1805 0 20.1552 0.400722 20.9567 1.20217C21.7581 2.00361 22.1588 2.97834 22.1588 4.12635C22.1588 5.27437 21.7581 6.25993 20.9567 7.08303C20.1552 7.90614 19.1805 8.31769 18.0325 8.31769ZM27.2274 11.3069C28.8303 11.5668 30.2383 12.0433 31.4513 12.7365C32.6643 13.4296 33.2708 14.2527 33.2708 15.2058V18H29.1119V15.2058C29.1119 13.7329 28.4838 12.4332 27.2274 11.3069ZM18 11.0469C19.7329 11.0469 21.5523 11.4368 23.4585 12.2166C25.3646 12.9964 26.3177 13.9928 26.3177 15.2058V18H9.68231V15.2058C9.68231 13.9928 10.6354 12.9964 12.5415 12.2166C14.4477 11.4368 16.2671 11.0469 18 11.0469Z" fill="#2E2E2E" />
            </svg>
