<svg width="28" height="28" viewBox="0 0 28 28" fill="none" xmlns="http://www.w3.org/2000/svg">
                <rect width="28" height="28" rx="14" fill="#515151" />
                <path d="M14.4516 6.32263C15.29 6.32263 16.0941 6.6557 16.687 7.24855C17.2798 7.84141 17.6129 8.6455 17.6129 9.48392C17.6129 10.3223 17.2798 11.1264 16.687 11.7193C16.0941 12.3121 15.29 12.6452 14.4516 12.6452C13.6132 12.6452 12.8091 12.3121 12.2162 11.7193C11.6234 11.1264 11.2903 10.3223 11.2903 9.48392C11.2903 8.6455 11.6234 7.84141 12.2162 7.24855C12.8091 6.6557 13.6132 6.32263 14.4516 6.32263ZM14.4516 14.2259C17.9448 14.2259 20.7742 15.6405 20.7742 17.3871V18.9678H8.12903V17.3871C8.12903 15.6405 10.9584 14.2259 14.4516 14.2259Z" fill="white" />
            </svg>
            