<svg width="28" height="28" viewBox="0 0 28 28" fill="none" xmlns="http://www.w3.org/2000/svg">
                <circle cx="14" cy="14" r="14" fill="#515151" />
                <path d="M13.11 5.99407C13.3736 5.9649 13.6149 5.83219 13.7806 5.62515C13.9464 5.41811 14.0232 5.1537 13.994 4.89007C13.9648 4.62645 13.8321 4.38521 13.6251 4.21943C13.418 4.05364 13.1536 3.9769 12.89 4.00607C7.888 4.55907 4 8.79707 4 13.9451C4 19.4681 8.477 23.9451 14 23.9451C19.146 23.9451 23.383 20.0581 23.939 15.0591C23.9682 14.7954 23.8914 14.531 23.7256 14.324C23.5599 14.1169 23.3186 13.9842 23.055 13.9551C22.7914 13.9259 22.527 14.0026 22.3199 14.1684C22.1129 14.3342 21.9802 14.5754 21.951 14.8391C21.7207 16.8692 20.7225 18.7343 19.161 20.0519C17.5996 21.3696 15.5932 22.04 13.5533 21.9256C11.5133 21.8113 9.59445 20.9209 8.19001 19.437C6.78558 17.9531 6.00202 15.9882 6 13.9451C6.00006 11.9774 6.72519 10.0787 8.03681 8.61197C9.34844 7.1452 11.1546 6.21319 13.11 5.99407Z" fill="white" />
                <path d="M16.7662 4.33499C16.6398 4.29953 16.5076 4.28933 16.3772 4.30497C16.2467 4.3206 16.1207 4.36177 16.0062 4.42612C15.775 4.55609 15.6048 4.77258 15.5332 5.02799C15.4616 5.28339 15.4944 5.55678 15.6244 5.78801C15.7543 6.01924 15.9708 6.18938 16.2262 6.26099C16.5132 6.34199 16.7952 6.43899 17.0682 6.55099C17.3138 6.65137 17.5892 6.65008 17.8339 6.54741C18.0785 6.44473 18.2723 6.24908 18.3727 6.00349C18.4731 5.7579 18.4718 5.48249 18.3692 5.23785C18.2665 4.9932 18.0708 4.79937 17.8252 4.69899C17.4794 4.55794 17.1258 4.43675 16.7662 4.33599V4.33499Z" fill="white" />
                <path d="M19.3496 6.63708C19.5288 6.4419 19.7782 6.32585 20.043 6.31441C20.3077 6.30297 20.5662 6.39709 20.7616 6.57608C20.9736 6.77008 21.1766 6.97308 21.3706 7.18408C21.5499 7.37955 21.6442 7.63823 21.6327 7.90322C21.6213 8.1682 21.505 8.4178 21.3096 8.59708C21.1141 8.77637 20.8554 8.87066 20.5905 8.85922C20.3255 8.84778 20.0759 8.73155 19.8966 8.53608C19.7417 8.36714 19.5795 8.20499 19.4106 8.05008C19.3137 7.96138 19.2353 7.85447 19.1797 7.73545C19.1242 7.61643 19.0927 7.48764 19.0869 7.35642C19.0811 7.22521 19.1013 7.09415 19.1462 6.97072C19.1911 6.8473 19.2599 6.73393 19.3486 6.63708H19.3496Z" fill="white" />
                <path d="M13 7.94507C13.2652 7.94507 13.5196 8.05043 13.7071 8.23796C13.8946 8.4255 14 8.67985 14 8.94507V13.9451H17C17.2652 13.9451 17.5196 14.0504 17.7071 14.238C17.8946 14.4255 18 14.6799 18 14.9451C18 15.2103 17.8946 15.4646 17.7071 15.6522C17.5196 15.8397 17.2652 15.9451 17 15.9451H13C12.7348 15.9451 12.4804 15.8397 12.2929 15.6522C12.1054 15.4646 12 15.2103 12 14.9451V8.94507C12 8.67985 12.1054 8.4255 12.2929 8.23796C12.4804 8.05043 12.7348 7.94507 13 7.94507Z" fill="white" />
                <path d="M21.9418 9.56803C22.1873 9.46767 22.4626 9.46892 22.7071 9.5715C22.9516 9.67408 23.1454 9.86959 23.2458 10.115C23.3876 10.4621 23.5095 10.817 23.6108 11.178C23.6503 11.3056 23.6638 11.4398 23.6505 11.5727C23.6372 11.7056 23.5975 11.8344 23.5336 11.9517C23.4698 12.069 23.383 12.1723 23.2786 12.2555C23.1742 12.3387 23.0541 12.4002 22.9255 12.4362C22.797 12.4723 22.6625 12.4822 22.53 12.4655C22.3975 12.4487 22.2697 12.4056 22.1542 12.3387C22.0386 12.2717 21.9376 12.1823 21.8572 12.0757C21.7768 11.9691 21.7185 11.8475 21.6858 11.718C21.6049 11.4308 21.5077 11.1483 21.3948 10.872C21.2944 10.6267 21.2955 10.3515 21.3979 10.107C21.5003 9.86249 21.6956 9.66863 21.9408 9.56803H21.9418Z" fill="white" />
            </svg>