<svg width="23" height="18" viewBox="0 0 23 18" fill="none" xmlns="http://www.w3.org/2000/svg">
<path d="M0.5 0V17C0.5 17.2652 0.605357 17.5196 0.792893 17.7071C0.98043 17.8946 1.23478 18 1.5 18H22.5V16H2.5V0H0.5Z" fill="#3F0E40"/>
<path d="M12.793 11.707C12.8858 11.7999 12.996 11.8737 13.1173 11.924C13.2386 11.9743 13.3686 12.0002 13.5 12.0002C13.6313 12.0002 13.7613 11.9743 13.8827 11.924C14.004 11.8737 14.1142 11.7999 14.207 11.707L19.207 6.70697L17.793 5.29297L13.5 9.58597L11.207 7.29297C11.1142 7.20002 11.004 7.12629 10.8827 7.07597C10.7613 7.02566 10.6313 6.99977 10.5 6.99977C10.3686 6.99977 10.2386 7.02566 10.1173 7.07597C9.99596 7.12629 9.88576 7.20002 9.79297 7.29297L4.79297 12.293L6.20697 13.707L10.5 9.41397L12.793 11.707Z" fill="#3F0E40"/>
</svg>
