<svg width="21" height="19" viewBox="0 0 21 19" fill="none" xmlns="http://www.w3.org/2000/svg">
                <path d="M14.6781 3.08439L17.9667 6.43231C18.1052 6.57335 18.1052 6.80348 17.9667 6.94452L10.0042 15.0508L6.62083 15.4331C6.16875 15.4851 5.78594 15.0953 5.83698 14.6351L6.2125 11.1907L14.175 3.08439C14.3135 2.94335 14.5396 2.94335 14.6781 3.08439ZM20.5844 2.23442L18.8052 0.423129C18.251 -0.141043 17.3505 -0.141043 16.7927 0.423129L15.5021 1.73706C15.3635 1.8781 15.3635 2.10822 15.5021 2.24927L18.7906 5.59719C18.9292 5.73823 19.1552 5.73823 19.2937 5.59719L20.5844 4.28326C21.1385 3.71537 21.1385 2.79859 20.5844 2.23442ZM14 12.8461V16.6245H2.33333V4.74722H10.7115C10.8281 4.74722 10.9375 4.69896 11.0214 4.61731L12.4797 3.13264C12.7568 2.85056 12.5599 2.37175 12.1698 2.37175H1.75C0.783854 2.37175 0 3.16976 0 4.15335V17.2184C0 18.202 0.783854 19 1.75 19H14.5833C15.5495 19 16.3333 18.202 16.3333 17.2184V11.3614C16.3333 10.9643 15.863 10.7675 15.5859 11.0459L14.1276 12.5306C14.0474 12.6159 14 12.7273 14 12.8461Z" fill="#2E2E2E" />
            </svg>
            