<svg width="170" height="37" viewBox="0 0 170 37" fill="none" xmlns="http://www.w3.org/2000/svg">
<rect width="170" height="37" rx="9" fill="#0047B1"/>
<path d="M39.3125 20.0156C39.3125 19.5729 39.1562 19.2344 38.8438 19C38.5312 18.7604 37.9688 18.5104 37.1562 18.25C36.3438 17.9844 35.7005 17.724 35.2266 17.4688C33.9349 16.7708 33.2891 15.8307 33.2891 14.6484C33.2891 14.0339 33.4609 13.487 33.8047 13.0078C34.1536 12.5234 34.651 12.1458 35.2969 11.875C35.9479 11.6042 36.6771 11.4688 37.4844 11.4688C38.2969 11.4688 39.0208 11.6172 39.6562 11.9141C40.2917 12.2057 40.7839 12.6198 41.1328 13.1562C41.487 13.6927 41.6641 14.3021 41.6641 14.9844H39.3203C39.3203 14.4635 39.1562 14.0599 38.8281 13.7734C38.5 13.4818 38.0391 13.3359 37.4453 13.3359C36.8724 13.3359 36.4271 13.4583 36.1094 13.7031C35.7917 13.9427 35.6328 14.2604 35.6328 14.6562C35.6328 15.026 35.8177 15.3359 36.1875 15.5859C36.5625 15.8359 37.112 16.0703 37.8359 16.2891C39.1693 16.6901 40.1406 17.1875 40.75 17.7812C41.3594 18.375 41.6641 19.1146 41.6641 20C41.6641 20.9844 41.2917 21.7578 40.5469 22.3203C39.8021 22.8776 38.7995 23.1562 37.5391 23.1562C36.6641 23.1562 35.8672 22.9974 35.1484 22.6797C34.4297 22.3568 33.8802 21.9167 33.5 21.3594C33.125 20.8021 32.9375 20.1562 32.9375 19.4219H35.2891C35.2891 20.6771 36.0391 21.3047 37.5391 21.3047C38.0964 21.3047 38.5312 21.1927 38.8438 20.9688C39.1562 20.7396 39.3125 20.4219 39.3125 20.0156ZM46.625 21.3359C47.0417 21.3359 47.3802 21.2214 47.6406 20.9922C47.901 20.763 48.0365 20.4583 48.0469 20.0781H50.1641C50.1589 20.651 50.0026 21.1771 49.6953 21.6562C49.388 22.1302 48.9661 22.5 48.4297 22.7656C47.8984 23.026 47.3099 23.1562 46.6641 23.1562C45.4557 23.1562 44.5026 22.7734 43.8047 22.0078C43.1068 21.237 42.7578 20.1745 42.7578 18.8203V18.6719C42.7578 17.3698 43.1042 16.3307 43.7969 15.5547C44.4896 14.7786 45.4401 14.3906 46.6484 14.3906C47.7057 14.3906 48.5521 14.6927 49.1875 15.2969C49.8281 15.8958 50.1536 16.6953 50.1641 17.6953H48.0469C48.0365 17.2578 47.901 16.9036 47.6406 16.6328C47.3802 16.3568 47.0365 16.2188 46.6094 16.2188C46.0833 16.2188 45.6849 16.4115 45.4141 16.7969C45.1484 17.1771 45.0156 17.7969 45.0156 18.6562V18.8906C45.0156 19.7604 45.1484 20.3854 45.4141 20.7656C45.6797 21.1458 46.0833 21.3359 46.625 21.3359ZM53.6562 15.4688C54.2552 14.75 55.0078 14.3906 55.9141 14.3906C57.7474 14.3906 58.6771 15.4557 58.7031 17.5859V23H56.4453V17.6484C56.4453 17.1641 56.3411 16.8073 56.1328 16.5781C55.9245 16.3438 55.5781 16.2266 55.0938 16.2266C54.4323 16.2266 53.9531 16.4818 53.6562 16.9922V23H51.3984V11H53.6562V15.4688ZM64.2969 23.1562C63.0573 23.1562 62.0469 22.776 61.2656 22.0156C60.4896 21.2552 60.1016 20.2422 60.1016 18.9766V18.7578C60.1016 17.9089 60.2656 17.151 60.5938 16.4844C60.9219 15.8125 61.3854 15.2969 61.9844 14.9375C62.5885 14.5729 63.276 14.3906 64.0469 14.3906C65.2031 14.3906 66.112 14.7552 66.7734 15.4844C67.4401 16.2135 67.7734 17.2474 67.7734 18.5859V19.5078H62.3906C62.4635 20.0599 62.6823 20.5026 63.0469 20.8359C63.4167 21.1693 63.8828 21.3359 64.4453 21.3359C65.3151 21.3359 65.9948 21.0208 66.4844 20.3906L67.5938 21.6328C67.2552 22.112 66.7969 22.487 66.2188 22.7578C65.6406 23.0234 65 23.1562 64.2969 23.1562ZM64.0391 16.2188C63.5911 16.2188 63.2266 16.3698 62.9453 16.6719C62.6693 16.974 62.4922 17.4062 62.4141 17.9688H65.5547V17.7891C65.5443 17.2891 65.4089 16.9036 65.1484 16.6328C64.888 16.3568 64.5182 16.2188 64.0391 16.2188ZM68.7109 18.7109C68.7109 17.3932 69.0052 16.3438 69.5938 15.5625C70.1875 14.7812 70.9974 14.3906 72.0234 14.3906C72.8464 14.3906 73.526 14.6979 74.0625 15.3125V11H76.3281V23H74.2891L74.1797 22.1016C73.6172 22.8047 72.8932 23.1562 72.0078 23.1562C71.013 23.1562 70.2135 22.7656 69.6094 21.9844C69.0104 21.1979 68.7109 20.1068 68.7109 18.7109ZM70.9688 18.875C70.9688 19.6667 71.1068 20.2734 71.3828 20.6953C71.6589 21.1172 72.0599 21.3281 72.5859 21.3281C73.2839 21.3281 73.776 21.0339 74.0625 20.4453V17.1094C73.7812 16.5208 73.2943 16.2266 72.6016 16.2266C71.513 16.2266 70.9688 17.1094 70.9688 18.875ZM83.1406 22.1406C82.5833 22.8177 81.8125 23.1562 80.8281 23.1562C79.9219 23.1562 79.2292 22.8958 78.75 22.375C78.276 21.8542 78.0339 21.0911 78.0234 20.0859V14.5469H80.2812V20.0078C80.2812 20.888 80.6823 21.3281 81.4844 21.3281C82.25 21.3281 82.776 21.0625 83.0625 20.5312V14.5469H85.3281V23H83.2031L83.1406 22.1406ZM89.4141 23H87.1484V11H89.4141V23ZM95.1719 23.1562C93.9323 23.1562 92.9219 22.776 92.1406 22.0156C91.3646 21.2552 90.9766 20.2422 90.9766 18.9766V18.7578C90.9766 17.9089 91.1406 17.151 91.4688 16.4844C91.7969 15.8125 92.2604 15.2969 92.8594 14.9375C93.4635 14.5729 94.151 14.3906 94.9219 14.3906C96.0781 14.3906 96.987 14.7552 97.6484 15.4844C98.3151 16.2135 98.6484 17.2474 98.6484 18.5859V19.5078H93.2656C93.3385 20.0599 93.5573 20.5026 93.9219 20.8359C94.2917 21.1693 94.7578 21.3359 95.3203 21.3359C96.1901 21.3359 96.8698 21.0208 97.3594 20.3906L98.4688 21.6328C98.1302 22.112 97.6719 22.487 97.0938 22.7578C96.5156 23.0234 95.875 23.1562 95.1719 23.1562ZM94.9141 16.2188C94.4661 16.2188 94.1016 16.3698 93.8203 16.6719C93.5443 16.974 93.3672 17.4062 93.2891 17.9688H96.4297V17.7891C96.4193 17.2891 96.2839 16.9036 96.0234 16.6328C95.763 16.3568 95.3932 16.2188 94.9141 16.2188ZM110.492 20.6562H106.383L105.602 23H103.109L107.344 11.625H109.516L113.773 23H111.281L110.492 20.6562ZM107.016 18.7578H109.859L108.43 14.5L107.016 18.7578ZM118.203 21.3359C118.62 21.3359 118.958 21.2214 119.219 20.9922C119.479 20.763 119.615 20.4583 119.625 20.0781H121.742C121.737 20.651 121.581 21.1771 121.273 21.6562C120.966 22.1302 120.544 22.5 120.008 22.7656C119.477 23.026 118.888 23.1562 118.242 23.1562C117.034 23.1562 116.081 22.7734 115.383 22.0078C114.685 21.237 114.336 20.1745 114.336 18.8203V18.6719C114.336 17.3698 114.682 16.3307 115.375 15.5547C116.068 14.7786 117.018 14.3906 118.227 14.3906C119.284 14.3906 120.13 14.6927 120.766 15.2969C121.406 15.8958 121.732 16.6953 121.742 17.6953H119.625C119.615 17.2578 119.479 16.9036 119.219 16.6328C118.958 16.3568 118.615 16.2188 118.188 16.2188C117.661 16.2188 117.263 16.4115 116.992 16.7969C116.727 17.1771 116.594 17.7969 116.594 18.6562V18.8906C116.594 19.7604 116.727 20.3854 116.992 20.7656C117.258 21.1458 117.661 21.3359 118.203 21.3359ZM125.734 12.4688V14.5469H127.18V16.2031H125.734V20.4219C125.734 20.7344 125.794 20.9583 125.914 21.0938C126.034 21.2292 126.263 21.2969 126.602 21.2969C126.852 21.2969 127.073 21.2786 127.266 21.2422V22.9531C126.823 23.0885 126.367 23.1562 125.898 23.1562C124.315 23.1562 123.508 22.3568 123.477 20.7578V16.2031H122.242V14.5469H123.477V12.4688H125.734ZM130.82 23H128.555V14.5469H130.82V23ZM128.422 12.3594C128.422 12.0208 128.534 11.7422 128.758 11.5234C128.987 11.3047 129.297 11.1953 129.688 11.1953C130.073 11.1953 130.38 11.3047 130.609 11.5234C130.839 11.7422 130.953 12.0208 130.953 12.3594C130.953 12.7031 130.836 12.9844 130.602 13.2031C130.372 13.4219 130.068 13.5312 129.688 13.5312C129.307 13.5312 129 13.4219 128.766 13.2031C128.536 12.9844 128.422 12.7031 128.422 12.3594ZM135.852 20.2422L137.422 14.5469H139.781L136.93 23H134.773L131.922 14.5469H134.281L135.852 20.2422ZM143.164 23H140.898V14.5469H143.164V23ZM140.766 12.3594C140.766 12.0208 140.878 11.7422 141.102 11.5234C141.331 11.3047 141.641 11.1953 142.031 11.1953C142.417 11.1953 142.724 11.3047 142.953 11.5234C143.182 11.7422 143.297 12.0208 143.297 12.3594C143.297 12.7031 143.18 12.9844 142.945 13.2031C142.716 13.4219 142.411 13.5312 142.031 13.5312C141.651 13.5312 141.344 13.4219 141.109 13.2031C140.88 12.9844 140.766 12.7031 140.766 12.3594ZM147.734 12.4688V14.5469H149.18V16.2031H147.734V20.4219C147.734 20.7344 147.794 20.9583 147.914 21.0938C148.034 21.2292 148.263 21.2969 148.602 21.2969C148.852 21.2969 149.073 21.2786 149.266 21.2422V22.9531C148.823 23.0885 148.367 23.1562 147.898 23.1562C146.315 23.1562 145.508 22.3568 145.477 20.7578V16.2031H144.242V14.5469H145.477V12.4688H147.734ZM153.594 19.8047L155.156 14.5469H157.578L154.18 24.3125L153.992 24.7578C153.487 25.862 152.654 26.4141 151.492 26.4141C151.164 26.4141 150.831 26.3646 150.492 26.2656V24.5547L150.836 24.5625C151.263 24.5625 151.581 24.4974 151.789 24.3672C152.003 24.237 152.169 24.0208 152.289 23.7188L152.555 23.0234L149.594 14.5469H152.023L153.594 19.8047Z" fill="white"/>
<path d="M22 17.8589H18.1429V14H16.8571V17.8589H13V19.1452H16.8571V23.0041H18.1429V19.1452H22V17.8589Z" fill="white"/>
</svg>
